<?xml version="1.0" encoding="utf-8"?>
<!-- Generator: Adobe Illustrator 27.2.0, SVG Export Plug-In . SVG Version: 6.00 Build 0)  -->
<svg version="1.1" id="Слой_1" xmlns="http://www.w3.org/2000/svg" xmlns:xlink="http://www.w3.org/1999/xlink" x="0px" y="0px"
	 viewBox="0 0 454.5 165" style="enable-background:new 0 0 454.5 165;" xml:space="preserve">
<g>
	<path d="M0,165C0,109.8,0,55.1,0,0c79.6,0,159,0,238.7,0c0,55.1,0,109.8,0,164.9C159.2,165,79.8,165,0,165z M58.6,83.5
		C58.6,83.5,58.6,83.5,58.6,83.5c-0.1,11.1-1,22.4,0.1,33.4c1.3,13.6,10.6,20.6,24.4,20.3c13.8-0.2,23.1-7.7,23.6-21.3
		c0.8-21.9,0.7-43.9,0-65.8c-0.4-12.8-9.6-20.3-22.5-20.7c-14.6-0.4-24,6.1-25.3,19.7C57.7,60.5,58.6,72.1,58.6,83.5z M190.8,135.4
		c0-9.5-0.2-18.4,0.1-27.4c0.1-4.1,0.5-8.3,1.6-12.2c5.7-20.3,11.7-40.6,17.6-60.8c0.3-1.2,0.5-2.4,0.8-4.1c-4.1,0-7.6,0.2-11-0.1
		c-3.1-0.2-4.4,0.9-5.1,3.9c-2.6,10.7-5.4,21.3-8.2,31.9c-0.9,3.4-1.9,6.8-3.2,11.5c-4.1-15.4-7.7-29.4-11.5-43.4
		c-0.4-1.4-1.8-3.6-2.9-3.7c-4.7-0.4-9.5-0.2-14.7-0.2c0.4,1.6,0.5,2.6,0.8,3.5c5.1,17.4,10.1,34.8,15.4,52.1c3,9.6,5,19.2,4.3,29.4
		c-0.4,6.4-0.1,12.9-0.1,19.5C180.2,135.4,185.1,135.4,190.8,135.4z M117.4,135.2c14.5,0,28.5,0,42.5,0c0-5,0-9.6,0-14.7
		c-8.9,0-17.5,0-26.3,0c0-30,0-59.5,0-89.2c-5.5,0-10.7,0-16.2,0C117.4,66,117.4,100.4,117.4,135.2z M31.9,31.2c0,5.2,0,9.8,0,14.5
		c0,21.6,0,43.3,0,64.9c0,7.2-2.6,9.9-9.4,10c-1.7,0-3.5,0-5.3,0c0,5.3,0,9.9,0,14.4c17,3.2,27.8-3.2,30.3-17.9c0.5-2.9,0.5-6,0.5-9
		c0-24,0-47.9,0-71.9c0-1.6-0.2-3.2-0.2-5.1C42.5,31.2,37.6,31.2,31.9,31.2z M205.5,120c0,5.4,0,10.3,0,15.3c5.2,0,10.1,0,15.1,0
		c0-5.2,0-10.1,0-15.3C215.5,120,210.7,120,205.5,120z"/>
	<path d="M248.1,136.2c0-36.1,0-70.9,0-106.6c12.5,0.7,24.9-1.8,37,2.6c5,1.8,8.2,5.7,9.6,10.8c2.4,8.1,2.8,16.6,0.3,24.6
		c-1.4,4.4-4.7,8.1-7.3,12.4c8.3,4.4,10.5,13,10.2,22.6c-0.2,6-0.2,12-1.3,17.9c-1.3,7-5.9,12-12.9,14
		C272.1,137.7,260.1,135.7,248.1,136.2z M264.4,120.8c3.5,0,6.4,0,9.4,0c4.9,0,7.5-2.8,7.7-7.3c0.3-5.6,0.3-11.3-0.1-16.9
		c-0.3-4-2-7.6-6.6-8.1c-3.4-0.4-6.8-0.1-10.4-0.1C264.4,99.2,264.4,109.6,264.4,120.8z M264.5,72.3c11.9,1.9,15.5-0.9,15.6-12.2
		c0-1.2,0-2.3,0-3.5c-0.3-10.7-4.8-13.9-15.6-10.9C264.5,54.5,264.5,63.5,264.5,72.3z"/>
	<path d="M351.7,30.1c0,4.9,0,9.5,0,14.6c-9.1,0-18,0-27.4,0c0,10.1,0,19.6,0,29.7c7.1,0,14.2,0,21.6,0c0,5.3,0,10,0,15.1
		c-7.2,0-14.2,0-21.6,0c0,10.4,0,20.4,0,31.2c8.9,0,18,0,27.3,0c0,5.3,0,9.9,0,15c-14.5,0-29,0-43.7,0c0-35.2,0-70.2,0-105.6
		C322.4,30.1,336.8,30.1,351.7,30.1z"/>
	<path d="M362.4,29.9c5.3,0,10.4,0,16,0c0,30.2,0,60.3,0,90.8c9,0,17.4,0,26.1,0c0,5.2,0,10,0,15c-13.9,0-27.8,0-42.1,0
		C362.4,100.5,362.4,65.4,362.4,29.9z"/>
	<path d="M412.9,135.8c0-35.5,0-70.6,0-105.9c5.2,0,10.2,0,15.7,0c0,30.1,0,60.1,0,90.8c9.1,0,17.6,0,26.6,0c0,5.3,0,10,0,15.1
		C441.2,135.8,427.3,135.8,412.9,135.8z"/>
	<path d="M454.5,159.1c0,2.2,0,4,0,6c-69,0-137.6,0-206.5,0c0-2.1,0-3.9,0-6C316.7,159.1,385.4,159.1,454.5,159.1z"/>
	<path d="M248,6c0-2.2,0-3.9,0-6c60.3,0,120.3,0,180.6,0c0,2.1,0,3.8,0,6C368.5,6,308.4,6,248,6z"/>
	<path d="M90.9,83.7c0,9.6,0.1,19.3,0,28.9c-0.1,6.4-3,9.7-8.2,9.8c-5.1,0-8.1-3-8.2-9.2c-0.1-20-0.1-39.9,0-59.9
		c0.1-6.2,3.1-9,8.4-8.9c5.2,0.1,7.9,3.1,7.9,9.4C91,63.7,90.9,73.7,90.9,83.7C90.9,83.7,90.9,83.7,90.9,83.7z"/>
</g>
</svg>
