<?xml version="1.0" encoding="UTF-8"?>
<svg xmlns="http://www.w3.org/2000/svg" viewBox="0 0 455.2 168.44">
  <defs>
    <style>
      .cls-1 {
        fill: #fff;
      }
    </style>
  </defs>
  <g id="_Слой_1" data-name="Слой 1">
    <rect class="cls-1" y="0" width="454.58" height="164.9"/>
    <rect y="0" width="238.7" height="164.9"/>
    <rect x="248" width="180.6" height="6"/>
    <rect x="248" y="159.1" width="206.58" height="5.8"/>
    <path class="cls-1" d="m217.06,120.66h15.75v16.55h-15.75v-16.55Z"/>
  </g>
  <g id="_Слой_3" data-name="Слой 3">
    <g>
      <path class="cls-1" d="m15.22,32.2h16.5v42.76h17.7v-42.76h16.5v105.01h-16.5v-47.26h-17.7v47.26H15.22V32.2Z"/>
      <path class="cls-1" d="m83.47,131.81c-4.3-4.6-6.45-11.1-6.45-19.5v-55.21c0-8.4,2.15-14.9,6.45-19.5,4.3-4.6,10.5-6.9,18.6-6.9s14.3,2.3,18.6,6.9c4.3,4.6,6.45,11.1,6.45,19.5v55.21c0,8.4-2.15,14.9-6.45,19.5-4.3,4.6-10.5,6.9-18.6,6.9s-14.3-2.3-18.6-6.9Zm27.15-18.45v-57.31c0-6.9-2.85-10.35-8.55-10.35s-8.55,3.45-8.55,10.35v57.31c0,6.9,2.85,10.35,8.55,10.35s8.55-3.45,8.55-10.35Z"/>
      <path class="cls-1" d="m138.23,32.2h16.5v90.01h27.15v15h-43.66V32.2Z"/>
      <path class="cls-1" d="m191.79,92.5l-19.95-60.31h17.55l11.25,38.55h.3l11.25-38.55h16.05l-19.95,60.31v44.71h-16.5v-44.71Z"/>
    </g>
    <g>
      <path d="m247.66,30.19h24.37c8.32,0,14.38,1.98,18.2,5.93,3.82,3.95,5.72,10.03,5.72,18.23v4.2c0,5.4-.86,9.8-2.57,13.2-1.71,3.4-4.33,5.85-7.85,7.35v.3c8.02,2.8,12.04,10.1,12.04,21.9v9c0,8.1-2.08,14.28-6.24,18.53-4.16,4.25-10.25,6.38-18.27,6.38h-25.39V30.19Zm22.46,42.76c3.23,0,5.65-.85,7.27-2.55,1.61-1.7,2.42-4.55,2.42-8.55v-5.85c0-3.8-.66-6.55-1.98-8.25-1.32-1.7-3.4-2.55-6.24-2.55h-7.78v27.75h6.31Zm2.94,47.26c2.84,0,4.94-.77,6.31-2.33,1.37-1.55,2.05-4.22,2.05-8.03v-9.15c0-4.8-.81-8.12-2.42-9.98-1.61-1.85-4.28-2.78-8-2.78h-7.19v32.25h9.25Z"/>
      <path d="m306.96,30.19h44.03v15h-27.89v27.75h22.16v15h-22.16v32.25h27.89v15h-44.03V30.19Z"/>
      <path d="m360.24,30.19h16.15v90.01h26.57v15h-42.71V30.19Z"/>
      <path d="m410.73,30.19h16.15v90.01h26.57v15h-42.71V30.19Z"/>
    </g>
  </g>
</svg>